<?xml version="1.0" encoding="UTF-8"?><svg xmlns="http://www.w3.org/2000/svg" viewBox="0 0 368 163.76"><defs><style>.cls-1{fill:#f9a51a;}.cls-2{fill:#fff;}.cls-3{fill:#2584c5;}.cls-4,.cls-5{fill:#72bf44;}.cls-6{fill:#f37021;}.cls-7,.cls-8{fill:#ed125f;}.cls-7,.cls-5,.cls-9{mix-blend-mode:multiply;}.cls-10{isolation:isolate;}.cls-11{fill:#009345;}.cls-12{fill:#8f53a1;}.cls-13{fill:#231f20;}</style></defs><g class="cls-10"><g id="Layer_1"><path class="cls-2" d="M181.5,0h185.65c-3.53,92.95-83.45,156.13-185.29,156.13S2.21,84.84,.85,0H181.5Z"/><g><g><path class="cls-13" d="M225.04,57.89c.51,0,.9,.17,1.18,.52,.28,.35,.42,.84,.42,1.47s-.14,1.13-.43,1.48c-.28,.35-.68,.53-1.18,.53-.25,0-.48-.05-.69-.14-.21-.09-.38-.24-.52-.43h-.04l-.12,.5h-.42v-5.5h.59v1.34c0,.3,0,.57-.03,.81h.03c.27-.39,.68-.58,1.22-.58Zm-.08,.49c-.4,0-.69,.12-.87,.34-.18,.23-.26,.62-.26,1.16s.09,.93,.27,1.17c.18,.23,.47,.35,.87,.35,.36,0,.63-.13,.81-.39,.18-.26,.26-.64,.26-1.13s-.09-.88-.26-1.13c-.18-.25-.45-.37-.82-.37Z"/><path class="cls-13" d="M227.06,57.96h.63l.85,2.21c.19,.5,.3,.87,.35,1.09h.03c.03-.12,.09-.33,.19-.62,.1-.29,.42-1.19,.96-2.68h.63l-1.66,4.41c-.17,.44-.36,.74-.58,.93-.22,.18-.49,.27-.81,.27-.18,0-.36-.02-.53-.06v-.47c.13,.03,.27,.04,.43,.04,.4,0,.69-.23,.86-.68l.22-.55-1.56-3.89Z"/><path class="cls-13" d="M236.39,61.83l-.37-1.23h-1.88l-.37,1.23h-1.18l1.82-5.19h1.34l1.83,5.19h-1.18Zm-.64-2.15c-.35-1.11-.54-1.74-.58-1.89-.04-.15-.07-.26-.09-.35-.08,.3-.3,1.05-.67,2.24h1.35Z"/><path class="cls-13" d="M239.8,61.04c.19,0,.41-.04,.68-.12v.8c-.27,.12-.6,.18-.99,.18-.43,0-.74-.11-.94-.33-.2-.22-.29-.54-.29-.98v-1.9h-.52v-.46l.59-.36,.31-.83h.69v.84h1.11v.81h-1.11v1.9c0,.15,.04,.27,.13,.34,.09,.07,.2,.11,.34,.11Z"/><path class="cls-13" d="M242.35,61.83h-1.08v-5.5h1.08v5.5Z"/><path class="cls-13" d="M245.99,61.83l-.21-.54h-.03c-.18,.23-.37,.39-.56,.47-.19,.09-.44,.13-.75,.13-.38,0-.68-.11-.9-.33-.22-.22-.33-.53-.33-.93s.15-.73,.44-.93c.29-.2,.74-.31,1.33-.33l.68-.02v-.17c0-.4-.2-.6-.61-.6-.32,0-.69,.1-1.11,.29l-.36-.73c.46-.24,.96-.36,1.51-.36s.94,.12,1.22,.35c.28,.23,.42,.58,.42,1.05v2.63h-.75Zm-.32-1.83h-.42c-.31,.02-.55,.08-.7,.18s-.23,.26-.23,.47c0,.3,.17,.46,.52,.46,.25,0,.45-.07,.6-.22s.22-.33,.22-.57v-.32Z"/><path class="cls-13" d="M250.61,60.66c0,.41-.14,.71-.42,.93-.28,.21-.7,.32-1.26,.32-.29,0-.53-.02-.73-.06-.2-.04-.39-.1-.57-.17v-.89c.2,.09,.43,.17,.68,.24,.25,.06,.47,.1,.66,.1,.39,0,.59-.11,.59-.34,0-.08-.03-.15-.08-.21-.05-.05-.14-.11-.27-.18-.13-.07-.3-.15-.51-.23-.3-.13-.53-.24-.67-.35s-.25-.23-.31-.37-.1-.31-.1-.52c0-.35,.14-.62,.41-.81,.27-.19,.66-.29,1.16-.29s.94,.1,1.39,.31l-.32,.78c-.2-.08-.38-.15-.55-.21-.17-.05-.35-.08-.53-.08-.32,0-.48,.09-.48,.26,0,.1,.05,.18,.15,.25,.1,.07,.33,.18,.67,.31,.31,.12,.53,.24,.68,.35s.25,.23,.32,.37c.07,.14,.1,.31,.1,.51Z"/><path class="cls-13" d="M255.6,57.5c-.41,0-.73,.16-.96,.46-.23,.31-.34,.74-.34,1.29,0,1.15,.43,1.73,1.3,1.73,.36,0,.8-.09,1.32-.27v.92c-.42,.18-.9,.27-1.42,.27-.75,0-1.33-.23-1.72-.68-.4-.46-.6-1.11-.6-1.96,0-.54,.1-1.01,.29-1.41,.2-.4,.48-.71,.84-.93,.37-.22,.79-.32,1.29-.32s1.01,.12,1.51,.36l-.35,.89c-.19-.09-.39-.17-.58-.24s-.39-.1-.58-.1Z"/><path class="cls-13" d="M261.53,59.85c0,.64-.17,1.15-.51,1.51s-.81,.54-1.42,.54c-.38,0-.71-.08-1-.25-.29-.17-.51-.4-.67-.72-.16-.31-.23-.67-.23-1.09,0-.65,.17-1.15,.51-1.51,.34-.36,.81-.54,1.42-.54,.38,0,.71,.08,1,.25,.29,.16,.51,.4,.67,.71,.16,.31,.23,.67,.23,1.08Zm-2.73,0c0,.39,.06,.69,.19,.89,.13,.2,.34,.3,.63,.3s.49-.1,.62-.3c.13-.2,.19-.5,.19-.89s-.06-.68-.19-.88-.34-.29-.63-.29-.49,.1-.62,.29-.19,.49-.19,.88Z"/><path class="cls-13" d="M264.58,61.9c-.46,0-.83-.17-1.09-.51h-.06c.04,.33,.06,.52,.06,.57v1.6h-1.08v-5.69h.88l.15,.51h.05c.25-.39,.63-.59,1.12-.59,.47,0,.83,.18,1.09,.54,.26,.36,.4,.86,.4,1.5,0,.42-.06,.79-.19,1.1s-.3,.55-.53,.71c-.23,.16-.5,.24-.81,.24Zm-.32-3.23c-.27,0-.46,.08-.58,.25-.12,.16-.19,.43-.19,.81v.12c0,.42,.06,.73,.19,.91,.13,.18,.33,.28,.6,.28,.48,0,.72-.4,.72-1.19,0-.39-.06-.68-.18-.87s-.31-.29-.56-.29Z"/><path class="cls-13" d="M268.6,61.9c-1.23,0-1.84-.67-1.84-2.02,0-.67,.17-1.18,.5-1.54s.81-.53,1.44-.53c.46,0,.87,.09,1.23,.27l-.32,.83c-.17-.07-.33-.12-.47-.17-.15-.04-.29-.07-.44-.07-.56,0-.84,.4-.84,1.19s.28,1.16,.84,1.16c.21,0,.4-.03,.58-.08,.18-.06,.35-.14,.53-.26v.92c-.17,.11-.35,.19-.53,.23s-.4,.06-.67,.06Z"/><path class="cls-13" d="M274.3,59.85c0,.64-.17,1.15-.51,1.51s-.81,.54-1.42,.54c-.38,0-.71-.08-1-.25-.29-.17-.51-.4-.67-.72-.16-.31-.23-.67-.23-1.09,0-.65,.17-1.15,.51-1.51,.34-.36,.81-.54,1.42-.54,.38,0,.71,.08,1,.25,.29,.16,.51,.4,.67,.71,.16,.31,.23,.67,.23,1.08Zm-2.73,0c0,.39,.06,.69,.19,.89,.13,.2,.34,.3,.63,.3s.49-.1,.62-.3c.13-.2,.19-.5,.19-.89s-.06-.68-.19-.88-.34-.29-.63-.29-.49,.1-.62,.29-.19,.49-.19,.88Z"/><path class="cls-13" d="M279.12,58.93h2.05v2.68c-.33,.11-.64,.18-.94,.23-.29,.04-.59,.07-.9,.07-.78,0-1.38-.23-1.79-.69s-.62-1.12-.62-1.97,.24-1.48,.72-1.95c.48-.47,1.14-.7,1.98-.7,.53,0,1.04,.11,1.53,.32l-.36,.88c-.38-.19-.77-.28-1.18-.28-.47,0-.85,.16-1.14,.48-.28,.32-.43,.75-.43,1.28s.11,.99,.34,1.28,.56,.44,1,.44c.23,0,.46-.02,.7-.07v-1.08h-.98v-.91Z"/><path class="cls-13" d="M284.52,57.81c.15,0,.27,.01,.36,.03l-.08,1.01c-.09-.02-.19-.03-.32-.03-.34,0-.61,.09-.8,.26s-.29,.42-.29,.74v2.01h-1.08v-3.95h.82l.16,.66h.05c.12-.22,.29-.4,.5-.53,.21-.14,.44-.2,.68-.2Z"/><path class="cls-13" d="M289.19,59.85c0,.64-.17,1.15-.51,1.51s-.81,.54-1.42,.54c-.38,0-.71-.08-1-.25-.29-.17-.51-.4-.67-.72-.16-.31-.23-.67-.23-1.09,0-.65,.17-1.15,.51-1.51,.34-.36,.81-.54,1.42-.54,.38,0,.71,.08,1,.25,.29,.16,.51,.4,.67,.71,.16,.31,.23,.67,.23,1.08Zm-2.73,0c0,.39,.06,.69,.19,.89,.13,.2,.34,.3,.63,.3s.49-.1,.62-.3c.13-.2,.19-.5,.19-.89s-.06-.68-.19-.88-.34-.29-.63-.29-.49,.1-.62,.29-.19,.49-.19,.88Z"/><path class="cls-13" d="M292.87,61.83l-.14-.51h-.06c-.12,.18-.28,.33-.49,.43-.21,.1-.45,.15-.72,.15-.46,0-.81-.12-1.05-.37-.24-.25-.35-.61-.35-1.07v-2.58h1.08v2.31c0,.28,.05,.5,.15,.64s.26,.21,.48,.21c.3,0,.52-.1,.65-.3s.2-.53,.2-1v-1.86h1.08v3.95h-.83Z"/><path class="cls-13" d="M297,61.9c-.46,0-.83-.17-1.09-.51h-.06c.04,.33,.06,.52,.06,.57v1.6h-1.08v-5.69h.88l.15,.51h.05c.25-.39,.63-.59,1.12-.59,.47,0,.83,.18,1.09,.54,.26,.36,.4,.86,.4,1.5,0,.42-.06,.79-.19,1.1s-.3,.55-.53,.71c-.23,.16-.5,.24-.81,.24Zm-.32-3.23c-.27,0-.46,.08-.58,.25-.12,.16-.19,.43-.19,.81v.12c0,.42,.06,.73,.19,.91,.13,.18,.33,.28,.6,.28,.48,0,.72-.4,.72-1.19,0-.39-.06-.68-.18-.87s-.31-.29-.56-.29Z"/></g><path class="cls-13" d="M189.45,48.5v-4.04c2.05,1.51,4.3,2.27,6.77,2.27,3.3,0,4.95-1.1,4.95-3.3,0-.63-.14-1.16-.42-1.59-.28-.44-.67-.82-1.15-1.16-.48-.34-1.05-.64-1.7-.91-.65-.27-1.35-.55-2.1-.84-1.04-.41-1.95-.83-2.74-1.25-.79-.42-1.45-.89-1.97-1.42-.53-.53-.93-1.13-1.19-1.8-.27-.67-.4-1.46-.4-2.36,0-1.1,.25-2.08,.76-2.92s1.18-1.56,2.02-2.13c.84-.57,1.8-1,2.88-1.3,1.08-.29,2.19-.44,3.34-.44,2.03,0,3.85,.35,5.46,1.05v3.81c-1.73-1.13-3.72-1.7-5.96-1.7-.7,0-1.34,.08-1.9,.24-.57,.16-1.05,.39-1.46,.68s-.72,.64-.94,1.04c-.22,.41-.33,.85-.33,1.34,0,.61,.11,1.12,.33,1.54,.22,.41,.55,.78,.97,1.1,.43,.32,.95,.61,1.56,.87,.61,.26,1.31,.54,2.09,.85,1.04,.4,1.97,.81,2.8,1.23,.83,.42,1.53,.9,2.11,1.42,.58,.53,1.03,1.14,1.34,1.82,.31,.69,.47,1.51,.47,2.45,0,1.16-.26,2.17-.77,3.03-.51,.86-1.2,1.57-2.05,2.13-.86,.57-1.84,.99-2.96,1.26-1.12,.28-2.29,.41-3.51,.41-2.42,0-4.51-.47-6.28-1.4Z"/><path class="cls-13" d="M220.03,49.12c-.89,.49-2.06,.73-3.51,.73-4.11,0-6.17-2.29-6.17-6.88v-13.9h-4.04v-3.21h4.04v-5.73l3.76-1.22v6.95h5.92v3.21h-5.92v13.23c0,1.58,.27,2.7,.8,3.37,.54,.67,1.42,1.01,2.66,1.01,.95,0,1.77-.26,2.45-.78v3.21Z"/><path class="cls-13" d="M241.9,49.9h-3.76v-4.27h-.09c-1.56,2.84-3.98,4.27-7.25,4.27-5.6,0-8.4-3.33-8.4-10v-14.04h3.74v13.44c0,4.95,1.9,7.43,5.69,7.43,1.83,0,3.34-.68,4.53-2.03,1.18-1.35,1.78-3.12,1.78-5.31v-13.53h3.76v24.04Z"/><path class="cls-13" d="M265.91,49.9h-3.76v-4.54h-.09c-1.74,3.03-4.43,4.54-8.07,4.54-2.95,0-5.31-1.05-7.08-3.15-1.77-2.1-2.65-4.97-2.65-8.59,0-3.88,.98-7,2.94-9.34,1.96-2.34,4.56-3.51,7.82-3.51s5.57,1.27,7.04,3.81h.09V15.19h3.76V49.9Zm-3.76-11.17v-3.46c0-1.9-.63-3.5-1.88-4.82-1.25-1.32-2.84-1.97-4.77-1.97-2.29,0-4.1,.84-5.41,2.52-1.32,1.68-1.97,4.01-1.97,6.97,0,2.71,.63,4.84,1.89,6.41,1.26,1.57,2.96,2.35,5.08,2.35s3.8-.76,5.1-2.27c1.31-1.51,1.96-3.43,1.96-5.73Z"/><g><path class="cls-1" d="M271.31,20.97c-.8,0-1.48-.27-2.04-.81-.56-.54-.84-1.23-.84-2.06s.28-1.53,.84-2.08,1.24-.83,2.04-.83,1.51,.28,2.08,.83,.86,1.25,.86,2.08-.28,1.48-.86,2.04c-.57,.56-1.26,.84-2.08,.84Z"/><path class="cls-7" d="M272.93,24.24c-.8,0-1.48-.27-2.04-.81-.56-.54-.84-1.23-.84-2.06s.28-1.53,.84-2.08c.56-.55,1.24-.83,2.04-.83s1.51,.28,2.08,.83,.86,1.25,.86,2.08-.28,1.48-.86,2.04c-.57,.56-1.26,.84-2.08,.84Z"/><path class="cls-5" d="M269.69,24.24c-.8,0-1.48-.27-2.04-.81-.56-.54-.84-1.23-.84-2.06s.28-1.53,.84-2.08c.56-.55,1.24-.83,2.04-.83s1.51,.28,2.08,.83c.57,.55,.86,1.25,.86,2.08s-.28,1.48-.86,2.04c-.57,.56-1.26,.84-2.08,.84Z"/></g><path class="cls-13" d="M273.22,49.9h-3.76V25.86h3.76v24.04Z"/><path class="cls-13" d="M288.19,49.64c-3.47,0-6.24-1.1-8.31-3.29-2.07-2.19-3.11-5.1-3.11-8.73,0-3.95,1.08-7.03,3.23-9.24,2.16-2.22,5.07-3.33,8.74-3.33s6.23,1.08,8.2,3.23c1.96,2.16,2.95,5.15,2.95,8.97s-1.06,6.75-3.18,9c-2.12,2.26-4.96,3.38-8.52,3.38Zm.28-21.42c-2.42,0-4.33,.82-5.73,2.47-1.41,1.64-2.11,3.91-2.11,6.8s.71,4.98,2.13,6.58c1.42,1.61,3.33,2.41,5.71,2.41s4.3-.79,5.61-2.36,1.96-3.82,1.96-6.72-.65-5.2-1.96-6.79c-1.31-1.59-3.18-2.39-5.61-2.39Z"/><g class="cls-9"><path class="cls-3" d="M73.07,49.9c-1.44,0-2.6-1.16-2.6-2.6V24.69c0-1.44,1.16-2.6,2.6-2.6s2.6,1.16,2.6,2.6v22.61c0,1.44-1.16,2.6-2.6,2.6Z"/></g><g class="cls-9"><path class="cls-8" d="M84.35,27.29h-11.28c-1.44,0-2.6-1.16-2.6-2.6s1.16-2.6,2.6-2.6h11.28c1.44,0,2.6,1.16,2.6,2.6s-1.16,2.6-2.6,2.6Z"/></g><g class="cls-9"><path class="cls-6" d="M85.64,49.9h-12.57c-1.44,0-2.6-1.16-2.6-2.6s1.16-2.6,2.6-2.6h12.57c1.44,0,2.6,1.16,2.6,2.6s-1.16,2.6-2.6,2.6Z"/></g><g class="cls-9"><path class="cls-6" d="M84.35,37.97c-1.44,0-2.6-1.16-2.6-2.6s1.16-2.6,2.6-2.6c1.52,0,2.76-1.24,2.76-2.76s-1.24-2.76-2.76-2.76c-1.44,0-2.6-1.16-2.6-2.6s1.16-2.6,2.6-2.6c4.39,0,7.95,3.57,7.95,7.95s-3.57,7.95-7.95,7.95Z"/></g><g class="cls-9"><path class="cls-12" d="M85.64,49.9c-1.44,0-2.6-1.16-2.6-2.6s1.16-2.6,2.6-2.6c1.86,0,3.37-1.51,3.37-3.37s-1.51-3.37-3.37-3.37h-1.29c-1.43,0-2.6-1.16-2.6-2.6,0-1.44,1.16-2.6,2.6-2.6h1.29c4.72,0,8.57,3.84,8.57,8.56s-3.84,8.57-8.56,8.57Z"/></g><g class="cls-9"><path class="cls-4" d="M84.35,37.97h-11.28c-1.44,0-2.6-1.16-2.6-2.6s1.16-2.6,2.6-2.6h11.28c1.44,0,2.6,1.16,2.6,2.6s-1.16,2.6-2.6,2.6Z"/></g><g class="cls-9"><path class="cls-3" d="M115.48,49.89c-.4,0-.8-.09-1.17-.28-1.28-.65-1.79-2.21-1.14-3.49l11.48-22.61c.65-1.28,2.21-1.79,3.49-1.14,1.28,.65,1.79,2.21,1.14,3.49l-11.48,22.61c-.46,.9-1.37,1.42-2.32,1.42Z"/></g><g class="cls-9"><path class="cls-4" d="M138.46,49.89c-.95,0-1.86-.52-2.32-1.42l-11.48-22.61c-.65-1.28-.14-2.84,1.14-3.49,1.28-.65,2.84-.14,3.49,1.14l11.48,22.61c.65,1.28,.14,2.84-1.14,3.49-.38,.19-.78,.28-1.17,.28Z"/></g><g class="cls-9"><path class="cls-8" d="M135.91,44.88h-17.87c-1.44,0-2.6-1.16-2.6-2.6s1.16-2.6,2.6-2.6h17.87c1.44,0,2.6,1.16,2.6,2.6s-1.16,2.6-2.6,2.6Z"/></g><g class="cls-9"><path class="cls-11" d="M157.64,49.89c-1.44,0-2.6-1.16-2.6-2.6V24.68c0-1.44,1.16-2.6,2.6-2.6s2.6,1.16,2.6,2.6v22.61c0,1.44-1.16,2.6-2.6,2.6Z"/></g><g class="cls-9"><path class="cls-8" d="M167.88,27.28h-10.24c-1.44,0-2.6-1.16-2.6-2.6s1.16-2.6,2.6-2.6h10.24c1.44,0,2.6,1.16,2.6,2.6s-1.16,2.6-2.6,2.6Z"/></g><g class="cls-9"><path class="cls-4" d="M167.88,49.89h-10.24c-1.44,0-2.6-1.16-2.6-2.6s1.16-2.6,2.6-2.6h10.24c1.44,0,2.6,1.16,2.6,2.6s-1.16,2.6-2.6,2.6Z"/></g><g class="cls-9"><g class="cls-9"><path class="cls-6" d="M178.31,38.58c-1.44,0-2.6-1.16-2.6-2.6,0-5.04-3.33-8.71-7.93-8.71-1.44,0-2.6-1.16-2.6-2.6s1.16-2.6,2.6-2.6c7.48,0,13.12,5.98,13.12,13.9,0,1.44-1.16,2.6-2.6,2.6Z"/></g><g class="cls-9"><path class="cls-1" d="M167.78,49.89c-1.44,0-2.6-1.16-2.6-2.6s1.16-2.6,2.6-2.6c4.59,0,7.93-3.66,7.93-8.71,0-1.44,1.16-2.6,2.6-2.6s2.6,1.16,2.6,2.6c0,7.93-5.64,13.9-13.12,13.9Z"/></g></g><g class="cls-9"><path class="cls-1" d="M157.64,49.89c-.74,0-1.47-.31-1.98-.92l-19.18-22.61c-.93-1.09-.79-2.73,.3-3.66,1.09-.93,2.73-.79,3.66,.3l19.18,22.61c.93,1.09,.79,2.73-.3,3.66-.49,.41-1.09,.62-1.68,.62Z"/></g><g class="cls-9"><path class="cls-8" d="M138.46,49.89c-1.44,0-2.6-1.16-2.6-2.6V24.68c0-1.44,1.16-2.6,2.6-2.6s2.6,1.16,2.6,2.6v22.61c0,1.44-1.16,2.6-2.6,2.6Z"/></g><g class="cls-9"><g class="cls-9"><g class="cls-9"><path class="cls-8" d="M97.98,49.89c-1.44,0-2.6-1.16-2.6-2.6V24.68c0-1.44,1.16-2.6,2.6-2.6s2.6,1.16,2.6,2.6v22.61c0,1.44-1.16,2.6-2.6,2.6Z"/></g></g><g class="cls-9"><path class="cls-6" d="M108.21,40.49h-10.23c-1.44,0-2.6-1.16-2.6-2.6s1.16-2.6,2.6-2.6h10.23c1.44,0,2.6,1.16,2.6,2.6s-1.16,2.6-2.6,2.6Z"/></g><g class="cls-9"><path class="cls-12" d="M108.86,27.28h-10.88c-1.44,0-2.6-1.16-2.6-2.6s1.16-2.6,2.6-2.6h10.88c1.44,0,2.6,1.16,2.6,2.6s-1.16,2.6-2.6,2.6Z"/></g><g class="cls-9"><path class="cls-4" d="M115.47,49.89c-.78,0-1.55-.35-2.06-1.01l-7.26-9.39c-.88-1.14-.67-2.77,.47-3.65,1.14-.88,2.77-.67,3.65,.47l7.26,9.39c.88,1.14,.67,2.77-.47,3.65-.47,.37-1.03,.54-1.59,.54Z"/></g><g class="cls-9"><path class="cls-3" d="M108.86,40.49h-.65c-1.44,0-2.6-1.16-2.6-2.6s1.16-2.6,2.6-2.6h.65c2.21,0,4.01-1.8,4.01-4.01s-1.8-4.01-4.01-4.01c-1.44,0-2.6-1.16-2.6-2.6s1.16-2.6,2.6-2.6c5.08,0,9.21,4.13,9.21,9.21s-4.13,9.21-9.21,9.21Z"/></g></g><g class="cls-9"><path class="cls-1" d="M97.98,49.89h-12.28c-1.44,0-2.6-1.16-2.6-2.6s1.16-2.6,2.6-2.6h12.28c1.44,0,2.6,1.16,2.6,2.6s-1.16,2.6-2.6,2.6Z"/></g></g></g></g></svg>